<?xml version="1.0" encoding="UTF-8"?>
<svg id="Layer_1" xmlns="http://www.w3.org/2000/svg" baseProfile="tiny" version="1.2" viewBox="0 0 31.46 32.4">
  <!-- Generator: Adobe Illustrator 29.1.0, SVG Export Plug-In . SVG Version: 2.1.0 Build 142)  -->
  <polygon points="2.68 20.4 24.02 29.95 24.02 24.44 2.68 14.89 2.68 20.4" fill="#594640"/>
  <polygon points="24.02 29.95 31.46 23.42 31.46 17.92 24.02 24.44 24.02 29.95" fill="#3f2e29"/>
  <polygon points="0 13.19 2.68 20.4 2.68 14.89 0 7.69 0 13.19" fill="#6d5650"/>
  <polygon points="0 7.69 2.68 14.89 24.02 24.44 31.46 17.92 15.73 5.75 6.45 3.4 0 7.69" fill="#89664c"/>
  <polygon points="1.04 7.44 3.54 14.06 23.93 23.34 30.56 17.74 15.54 6 6.46 3.74 1.04 7.44" fill="#dbb471"/>
  <polygon points="7.22 7.24 5.72 8.2 8.36 9.8 5.88 11.48 7.38 12.36 10 10.65 21.11 16.55 22.46 15.42 11.5 9.55 13.98 7.85 12.51 6.97 9.82 8.68 7.22 7.24" fill="#89664c"/>
  <path d="M26.1,12.14c-1.45,1-3.07,1.79-4.8,2.22-.86.21-1.76.34-2.65.35-.45,0-.9-.01-1.35-.07-.23-.03-.45-.06-.67-.1-.11-.02-.23-.05-.34-.08-.11-.03-.22-.06-.35-.1l.27-.71c.07.03.18.07.28.1.1.03.2.06.3.09.2.05.41.1.62.14.42.08.84.13,1.27.15.85.05,1.72,0,2.57-.16,1.71-.3,3.36-.96,4.88-1.85Z" fill="#75a843"/>
  <path d="M21.94,12.96c-.11,1.17-1.08,1.34-1.08,1.34,0,0-1.01-.5-.9-1.67.08-.81,1.19-1.95,1.19-1.95,0,0,.87,1.48.79,2.28Z" fill="#83bf4f"/>
  <path d="M25.02,11.41c-1.09,1.08-1.68,1.57-1.31,2.48.37.91,3.2,1.32,3.4-.32.19-1.6,1.22-1.99,1.22-1.99,0,0-1.54-1.93-3.31-.18Z" fill="#871212"/>
  <path d="M25.86,14.26c-1.52-.14-2.28.11-2.65-.8-.37-.91,1.94-3.84,2.99-2.56,1.3,1.58,2.14,1.77,2.14,1.77,0,0-.22,1.8-2.49,1.59Z" fill="#991d1d"/>
  <path d="M27.02,13.9c.54-.22.01-2.81.67-3.57,0,0-1.28-.81-1.92-.01-.36.44-.56,4.34,1.25,3.59Z" fill="#991d1d"/>
  <path d="M26.03,12.82c-1.18,2.21-2.57,1.88-3.05.69-.48-1.19.11-2.97,1.56-3.19,1.46-.22,2.38-1.18,2.38-1.18,0,0,.02,1.99-.88,3.68Z" fill="#ad2727"/>
  <path d="M25.63,11.43c-2.3-.96-3.09.98-2.61,2.17.48,1.19,1.97,1.69,3.31,1.12,1.34-.57,2.32-.55,2.32-.55,0,0-1.38-2.05-3.02-2.74Z" fill="#cc3636"/>
  <path d="M23.6,13.39c.77,1.83-.26,1.32-.74.13-1.19-2.93,1.36-3.86,1.36-3.86,0,0-1.3,2.11-.62,3.73Z" fill="#75a843"/>
  <path d="M23.6,13.39c-.4-.41-1.2-1.58-.95-.32.49,2.49,3.76,2.23,3.76,2.23,0,0-1.62-.69-2.81-1.91Z" fill="#83bf4f"/>
  <path d="M26.15,16.92c-1.7-.44-3.35-1.14-4.82-2.17-.74-.51-1.42-1.11-2.03-1.78-.31-.34-.59-.7-.86-1.07-.13-.19-.26-.38-.38-.58-.06-.1-.12-.21-.17-.31-.06-.11-.11-.2-.16-.34l.69-.27c.03.08.07.18.11.28.04.09.09.19.14.29.09.19.2.38.31.56.22.37.47.73.74,1.07.54.68,1.16,1.3,1.83,1.85,1.36,1.1,2.94,1.92,4.61,2.47Z" fill="#75a843"/>
  <path d="M25.96,15.61c-1.51-.11-2.27-.22-2.68.66-.41.89,1.19,3.32,2.51,2.38,1.29-.92,2.26-.4,2.26-.4,0,0,.37-2.46-2.09-2.64Z" fill="#871212"/>
  <path d="M24.44,18.15c-.92-1.25-1.6-1.66-1.19-2.54.41-.89,4.08-1.09,3.86.56-.28,2.05.15,2.81.15,2.81,0,0-1.45,1.04-2.82-.83Z" fill="#991d1d"/>
  <path d="M25.48,18.8c.52.26,2.04-1.87,3.05-1.88,0,0-.27-1.51-1.28-1.47-.56.02-3.52,2.48-1.77,3.35Z" fill="#ad2727"/>
  <path d="M25.61,17.32c-2.4.58-3.08-.69-2.54-1.86.54-1.16,2.23-1.91,3.36-.95,1.14.96,2.45,1.02,2.45,1.02,0,0-1.43,1.35-3.26,1.79Z" fill="#e24b4b"/>
  <path d="M26.35,16.08c-.84-2.39-2.78-1.7-3.32-.53-.54,1.17.09,2.63,1.4,3.27,1.31.64,1.95,1.39,1.95,1.39,0,0,.57-2.42-.03-4.13Z" fill="#f25151"/>
  <path d="M23.56,15.86c-.81,1.81-1.14.69-.59-.48,1.33-2.87,3.72-1.55,3.72-1.55,0,0-2.4.42-3.12,2.03Z" fill="#75a843"/>
  <path d="M23.56,15.86c.03-.58.34-1.97-.41-.94-1.48,2.04.9,4.35.9,4.35,0,0-.59-1.7-.49-3.41Z" fill="#83bf4f"/>
  <polygon points="2.96 18.89 23.47 28.04 23.47 27.06 2.96 17.92 2.96 18.89" fill="#b7925e"/>
  <polygon points="4.11 20.64 5.37 21.22 5.37 17.47 4.11 16.89 4.11 20.64" fill="#dbb471"/>
  <polygon points="5.37 21.22 5.99 20.85 5.99 20.35 5.68 20.2 5.68 19.53 5.99 19.35 5.99 17.11 5.37 17.47 5.37 21.22" fill="#3f2e29"/>
  <polygon points="4.11 16.89 5.37 17.47 5.99 17.11 4.74 16.58 4.11 16.89" fill="#89664c"/>
  <polygon points="20.82 27.98 22.09 28.56 22.09 24.82 20.82 24.23 20.82 27.98" fill="#dbb471"/>
  <polygon points="22.09 28.56 22.71 28.2 22.71 27.69 22.4 27.55 22.4 26.87 22.71 26.7 22.71 24.45 22.09 24.82 22.09 28.56" fill="#3f2e29"/>
  <polygon points="20.82 24.23 22.09 24.82 22.71 24.45 21.45 23.92 20.82 24.23" fill="#89664c"/>
</svg>