<?xml version="1.0" encoding="UTF-8"?>
<svg id="Layer_1" xmlns="http://www.w3.org/2000/svg" version="1.1" viewBox="0 0 200 200">
  <!-- Generator: Adobe Illustrator 29.7.1, SVG Export Plug-In . SVG Version: 2.1.1 Build 8)  -->
  <path d="M99.99,67.7c-17.79,0-32.3,14.52-32.3,32.3s14.52,32.3,32.3,32.3,32.3-14.52,32.3-32.3-14.52-32.3-32.3-32.3ZM196.89,100c0-13.38.12-26.63-.63-39.99-.75-15.51-4.29-29.28-15.63-40.62-11.37-11.37-25.11-14.88-40.62-15.63-13.38-.75-26.63-.63-39.99-.63s-26.63-.12-39.99.63c-15.51.75-29.28,4.29-40.62,15.63C8.05,30.76,4.53,44.5,3.78,60.01c-.75,13.38-.63,26.63-.63,39.99s-.12,26.63.63,39.99c.75,15.51,4.29,29.28,15.63,40.62,11.37,11.37,25.11,14.88,40.62,15.63,13.38.75,26.63.63,39.99.63s26.63.12,39.99-.63c15.51-.75,29.28-4.29,40.62-15.63s14.88-25.11,15.63-40.62c.78-13.35.63-26.61.63-39.99h0ZM99.99,149.71c-27.51,0-49.71-22.2-49.71-49.71s22.2-49.71,49.71-49.71,49.71,22.2,49.71,49.71-22.2,49.71-49.71,49.71ZM151.74,59.87c-6.42,0-11.61-5.19-11.61-11.61s5.19-11.61,11.61-11.61,11.61,5.19,11.61,11.61c0,6.4-5.18,11.6-11.58,11.61,0,0-.02,0-.03,0Z"/>
</svg>