<?xml version="1.0" encoding="UTF-8"?>
<svg id="_x32_" xmlns="http://www.w3.org/2000/svg" version="1.1" viewBox="0 0 200 200">
  <!-- Generator: Adobe Illustrator 29.7.1, SVG Export Plug-In . SVG Version: 2.1.1 Build 8)  -->
  <path d="M108.39,115.66l-19.38,19.37c0,.22.01.45.01.67,0,3.18-.6,6.35-1.8,9.32-1.21,2.96-3,5.74-5.44,8.16l-12.74,12.76c-2.44,2.44-5.21,4.22-8.18,5.43-2.97,1.21-6.14,1.81-9.31,1.81s-6.34-.6-9.31-1.8c-2.97-1.22-5.74-3-8.18-5.44-2.44-2.44-4.22-5.2-5.43-8.17s-1.81-6.14-1.81-9.32.6-6.34,1.81-9.31,2.99-5.74,5.43-8.18l12.76-12.75c2.44-2.42,5.2-4.22,8.17-5.43,2.96-1.21,6.14-1.81,9.31-1.81.22,0,.45.01.67.02l19.38-19.39c-.6-.28-1.21-.54-1.83-.79-5.84-2.37-12.03-3.55-18.21-3.55s-12.38,1.18-18.21,3.55c-5.84,2.37-11.32,5.94-16.03,10.63l-12.75,12.76c-4.71,4.69-8.27,10.18-10.64,16.02s-3.55,12.03-3.55,18.21,1.18,12.38,3.55,18.22c2.37,5.83,5.93,11.32,10.64,16.01,4.7,4.72,10.19,8.29,16.02,10.64,5.84,2.38,12.03,3.55,18.22,3.55s12.38-1.17,18.22-3.55c5.84-2.35,11.32-5.92,16.02-10.64l12.75-12.74c4.7-4.72,8.27-10.19,10.64-16.02,2.37-5.85,3.54-12.04,3.55-18.22,0-6.17-1.18-12.37-3.55-18.22-.25-.6-.52-1.22-.79-1.82Z"/>
  <path d="M193.33,33.34c-2.37-5.84-5.93-11.33-10.64-16.03-4.7-4.7-10.19-8.27-16.03-10.64-5.84-2.37-12.03-3.55-18.21-3.55s-12.38,1.18-18.22,3.55-11.32,5.94-16.02,10.64l-12.75,12.75c-4.7,4.7-8.27,10.18-10.64,16.02-2.37,5.83-3.54,12.03-3.54,18.22s1.17,12.38,3.54,18.22c.25.61.51,1.22.79,1.83l19.38-19.38c0-.22-.01-.44-.01-.67,0-3.18.6-6.35,1.81-9.31,1.21-2.97,2.99-5.74,5.43-8.18l12.74-12.75c2.44-2.42,5.21-4.22,8.18-5.43,2.96-1.19,6.13-1.81,9.31-1.81s6.34.61,9.32,1.81c2.96,1.21,5.73,3,8.17,5.43,2.44,2.45,4.22,5.21,5.43,8.18,1.19,2.97,1.81,6.14,1.81,9.31s-.61,6.34-1.81,9.32c-1.21,2.97-2.99,5.74-5.43,8.17l-12.75,12.75c-2.44,2.44-5.21,4.22-8.18,5.43-2.96,1.21-6.13,1.81-9.31,1.81-.22,0-.45,0-.67-.01l-19.38,19.38c.6.27,1.21.54,1.82.78,5.85,2.38,12.04,3.56,18.22,3.56s12.38-1.18,18.21-3.56c5.84-2.37,11.32-5.93,16.03-10.63l12.75-12.75c4.71-4.7,8.27-10.19,10.64-16.03,2.37-5.83,3.55-12.03,3.55-18.21s-1.18-12.38-3.55-18.21Z"/>
  <path d="M63.75,136.25c4.63,4.64,12.13,4.64,16.76,0l55.73-55.73c4.62-4.62,4.64-12.12,0-16.76-4.63-4.62-12.13-4.62-16.76,0l-55.73,55.75c-4.62,4.62-4.62,12.12,0,16.75Z"/>
</svg>