<?xml version="1.0" encoding="UTF-8"?>
<svg id="Layer_1" xmlns="http://www.w3.org/2000/svg" version="1.1" viewBox="0 0 200 200">
  <!-- Generator: Adobe Illustrator 29.7.1, SVG Export Plug-In . SVG Version: 2.1.1 Build 8)  -->
  <path d="M191.35,140.04l-42.39-18.17c-3.72-1.59-8.04-.52-10.6,2.61l-18.77,22.93c-29.46-13.89-53.17-37.6-67.06-67.06l22.93-18.77c3.14-2.55,4.2-6.88,2.61-10.6L59.92,8.61c-1.76-4.03-6.12-6.23-10.41-5.26L10.16,12.43c-4.12.95-7.04,4.62-7.04,8.85,0,97.07,78.68,175.6,175.6,175.6,4.23,0,7.9-2.92,8.86-7.04l9.08-39.36c.97-4.3-1.26-8.69-5.3-10.44h0Z"/>
</svg>