<svg xmlns="http://www.w3.org/2000/svg" width="8rem" height="8rem" viewBox="0 0 48 48">
	<g fill="none" stroke-width="3">
		<path stroke="#ffdd00" d="M24 44C35.0457 44 44 35.0457 44 24C44 12.9543 35.0457 4 24 4C12.9543 4 4 12.9543 4 24C4 35.0457 12.9543 44 24 44Z" clip-rule="evenodd" />
		<path fill="#ffdd00" stroke="#ffdd00" stroke-linejoin="round" d="M24 44C35.0457 44 44 35.0457 44 24C44 12.9543 35.0457 4 24 4C12.9543 4 4 12.9543 4 24C4 35.0457 12.9543 44 24 44Z" />
		<path stroke="black" stroke-linecap="round" stroke-linejoin="round" d="M33 27L24 18L15 27" />
	</g>
</svg>