<?xml version="1.0" encoding="UTF-8"?>
<svg id="Layer_1" xmlns="http://www.w3.org/2000/svg" version="1.1" viewBox="0 0 200 200">
  <!-- Generator: Adobe Illustrator 29.7.1, SVG Export Plug-In . SVG Version: 2.1.1 Build 8)  -->
  <defs>
    <style>
      .st0 {
        fill-rule: evenodd;
      }
    </style>
  </defs>
  <g id="Page-1">
    <g id="Dribbble-Light-Preview">
      <g id="icons">
        <path id="youtube-_x5B__x23_168_x5D_" class="st0" d="M80.51,125.07v-54.36c19.3,9.08,34.25,17.86,51.93,27.31-14.58,8.09-32.63,17.16-51.93,27.05M188.07,43.67c-3.33-4.39-9-7.8-15.04-8.93-17.76-3.37-128.53-3.38-146.27,0-4.84.91-9.16,3.1-12.86,6.51C-1.72,55.74,3.17,133.45,6.93,146.04c1.58,5.45,3.63,9.38,6.2,11.96,3.32,3.41,7.86,5.76,13.08,6.81,14.62,3.03,89.94,4.72,146.49.45,5.21-.91,9.82-3.33,13.46-6.89,14.44-14.43,13.45-96.52,1.89-114.71"/>
      </g>
    </g>
  </g>
</svg>